<svg version="1.1" viewBox="0.0 0.0 1000.0 1000.0" fill="none" stroke="none" stroke-linecap="square" stroke-miterlimit="10" xmlns:xlink="http://www.w3.org/1999/xlink" xmlns="http://www.w3.org/2000/svg"><clipPath id="p.0"><path d="m0 0l1000.0 0l0 1000.0l-1000.0 0l0 -1000.0z" clip-rule="nonzero"/></clipPath><g clip-path="url(#p.0)"><path fill="#000000" fill-opacity="0.0" d="m0 0l1000.0 0l0 1000.0l-1000.0 0z" fill-rule="evenodd"/><path fill="#000000" fill-opacity="0.0" d="m-0.008597037 3.7905257l667.5602 -319.11554l332.45813 1239.7546l-667.5602 319.11554z" fill-rule="evenodd"/><path fill="#000000" d="m565.5731 841.25867l-177.0455 84.633545l-35.224915 -131.35577l170.16605 -81.34491q66.04492 -31.571655 103.93164 -78.41412q37.89673 -46.864563 46.037903 -111.04205q8.141235 -64.17746 -14.227844 -147.59302q-22.233276 -82.909 -59.207397 -125.24278q-36.960022 -42.3405 -88.05417 -46.647217q-51.08008 -4.313446 -116.67389 27.042526l-174.29654 83.31943l-35.22493 -131.35573l182.55742 -87.26842q102.739685 -49.112904 188.79312 -39.817776q86.067505 9.288395 148.26141 73.371994q62.208008 64.07687 93.27936 179.94377q31.207275 116.373474 13.66748 218.86679q-17.529846 102.47125 -80.07391 182.80084q-62.54413 80.32959 -166.66528 130.1029zm-300.00183 -696.15564l199.55997 744.17004l-139.8996 66.87659l-199.55997 -744.1701l139.8996 -66.87657z" fill-rule="nonzero"/><path fill="#000000" fill-opacity="0.0" d="m373.5393 445.89468l0 0c0 -77.8999 63.15039 -141.0503 141.0503 -141.0503l0 0c37.408875 0 73.28558 14.860626 99.73761 41.312683c26.452087 26.452057 41.312683 62.328766 41.312683 99.73761l0 0c0 77.89993 -63.15033 141.05032 -141.0503 141.05032l0 0c-77.8999 0 -141.0503 -63.15039 -141.0503 -141.05032z" fill-rule="evenodd"/><path stroke="#000000" stroke-width="15.611548556430446" stroke-linejoin="round" stroke-linecap="butt" d="m373.5393 445.89468l0 0c0 -77.8999 63.15039 -141.0503 141.0503 -141.0503l0 0c37.408875 0 73.28558 14.860626 99.73761 41.312683c26.452087 26.452057 41.312683 62.328766 41.312683 99.73761l0 0c0 77.89993 -63.15033 141.05032 -141.0503 141.05032l0 0c-77.8999 0 -141.0503 -63.15039 -141.0503 -141.05032z" fill-rule="evenodd"/><path fill="#000000" fill-opacity="0.0" d="m600.8097 554.64465l33.44873 -33.44873l255.04645 255.04645l-33.44873 33.44873z" fill-rule="evenodd"/><path stroke="#000000" stroke-width="15.611548556430446" stroke-linejoin="round" stroke-linecap="butt" d="m600.8097 554.64465l33.44873 -33.44873l255.04645 255.04645l-33.44873 33.44873z" fill-rule="evenodd"/></g></svg>